HIERARCHY
ROOT Hips
{
	OFFSET 0.000000 0.000000 0.000000
	CHANNELS 6 Xposition Yposition Zposition Xrotation Yrotation Zrotation
	JOINT LeftUpLeg_virtual
	{
		OFFSET 0.000000 0.000000 0.000000
		CHANNELS 3 Xrotation Yrotation Zrotation
		JOINT LeftUpLeg
		{
			OFFSET 11.394100 -6.187798 -0.413800
			CHANNELS 3 Xrotation Yrotation Zrotation
			JOINT LeftLeg
			{
				OFFSET 0.430247 -32.302673 3.732800
				CHANNELS 3 Xrotation Yrotation Zrotation
				JOINT LeftFoot
				{
					OFFSET -0.430247 -48.264931 -6.423300
					CHANNELS 3 Xrotation Yrotation Zrotation
					JOINT LeftToeBase
					{
						OFFSET 4.230900 -16.068199 23.438400
						CHANNELS 3 Xrotation Yrotation Zrotation
						JOINT LeftToe_End
						{
							OFFSET 4.510700 0.695400 19.974600
							CHANNELS 3 Xrotation Yrotation Zrotation
							End Site
							{
								OFFSET 0 0 0
							}
						}
					}
				}
			}
		}
	}
	JOINT RightUpLeg_virtual
	{
		OFFSET 0.000000 0.000000 0.000000
		CHANNELS 3 Xrotation Yrotation Zrotation
		JOINT RightUpLeg
		{
			OFFSET -11.333700 -6.187798 -0.413800
			CHANNELS 3 Xrotation Yrotation Zrotation
			JOINT RightLeg
			{
				OFFSET -0.430392 -32.302628 3.733000
				CHANNELS 3 Xrotation Yrotation Zrotation
				JOINT RightFoot
				{
					OFFSET 0.430392 -48.264973 -6.423500
					CHANNELS 3 Xrotation Yrotation Zrotation
					JOINT RightToeBase
					{
						OFFSET -4.230900 -16.068199 23.438400
						CHANNELS 3 Xrotation Yrotation Zrotation
						JOINT RightToe_End
						{
							OFFSET -4.510700 0.695400 19.974600
							CHANNELS 3 Xrotation Yrotation Zrotation
							End Site
							{
								OFFSET 0 0 0
							}
						}
					}
				}
			}
		}
	}
	JOINT Spine_virtual
	{
		OFFSET 0.000000 0.000000 0.000000
		CHANNELS 3 Xrotation Yrotation Zrotation
		JOINT Spine
		{
			OFFSET -0.002400 12.777504 0.315300
			CHANNELS 3 Xrotation Yrotation Zrotation
			JOINT Spine1
			{
				OFFSET -0.002067 5.816869 0.032633
				CHANNELS 3 Xrotation Yrotation Zrotation
				JOINT Spine1_split
				{
					OFFSET -0.002067 5.816869 0.032633
					CHANNELS 3 Xrotation Yrotation Zrotation
					JOINT Spine2
					{
						OFFSET -0.002067 5.816869 0.032633
						CHANNELS 3 Xrotation Yrotation Zrotation
						JOINT Neck_virtual
						{
							OFFSET 0.000000 0.000000 0.000000
							CHANNELS 3 Xrotation Yrotation Zrotation
							JOINT Neck
							{
								OFFSET -0.003700 21.199493 -0.826900
								CHANNELS 3 Xrotation Yrotation Zrotation
								JOINT Head
								{
									OFFSET 0.000000 20.442200 4.834800
									CHANNELS 3 Xrotation Yrotation Zrotation
									JOINT HeadTop_End
									{
										OFFSET 0.000000 34.668396 4.968400
										CHANNELS 3 Xrotation Yrotation Zrotation
										End Site
										{
											OFFSET 0 0 0
										}
									}
								}
							}
						}
						JOINT LeftShoulder_virtual
						{
							OFFSET 0.000000 0.000000 0.000000
							CHANNELS 3 Xrotation Yrotation Zrotation
							JOINT LeftShoulder
							{
								OFFSET 3.288150 8.794197 -1.372250
								CHANNELS 3 Xrotation Yrotation Zrotation
								JOINT LeftShoulder_split
								{
									OFFSET 3.288150 8.794197 -1.372250
									CHANNELS 3 Xrotation Yrotation Zrotation
									JOINT LeftArm
									{
										OFFSET 11.953299 -2.279007 -0.146200
										CHANNELS 3 Xrotation Yrotation Zrotation
										JOINT LeftForeArm
										{
											OFFSET 18.448900 0.000000 0.000000
											CHANNELS 3 Xrotation Yrotation Zrotation
											JOINT LeftHand
											{
												OFFSET 29.527798 0.000000 0.000000
												CHANNELS 3 Xrotation Yrotation Zrotation
												End Site
												{
													OFFSET 0 0 0
												}
											}
										}
									}
								}
							}
						}
						JOINT RightShoulder_virtual
						{
							OFFSET 0.000000 0.000000 0.000000
							CHANNELS 3 Xrotation Yrotation Zrotation
							JOINT RightShoulder
							{
								OFFSET -3.249400 8.794197 -1.372250
								CHANNELS 3 Xrotation Yrotation Zrotation
								JOINT RightShoulder_split
								{
									OFFSET -3.249400 8.794197 -1.372250
									CHANNELS 3 Xrotation Yrotation Zrotation
									JOINT RightArm
									{
										OFFSET -11.953299 -2.279007 -0.146200
										CHANNELS 3 Xrotation Yrotation Zrotation
										JOINT RightForeArm
										{
											OFFSET -18.448900 0.000000 0.000000
											CHANNELS 3 Xrotation Yrotation Zrotation
											JOINT RightHand
											{
												OFFSET -29.527802 0.000000 0.000000
												CHANNELS 3 Xrotation Yrotation Zrotation
												End Site
												{
													OFFSET 0 0 0
												}
											}
										}
									}
								}
							}
						}
					}
				}
			}
		}
	}
}
MOTION
Frames: 5
Frame Time: 0.03333333
0.294137 81.608391 -2.176405 0.000000 0.000000 0.000000 4.157139 -49.892073 7.522346 -43.903988 11.025276 20.690815 57.250734 -10.310103 3.555819 -12.914339 -6.788977 -13.332075 -2.689975 -2.720779 1.275394 0.000000 0.000000 0.000000 3.796159 -47.598188 7.803617 -30.112501 -16.523367 -26.584836 55.461628 12.905812 -8.668478 -23.428143 -22.463393 26.048105 5.847479 11.266652 -26.801350 0.000000 0.000000 0.000000 2.370850 -44.048071 6.407986 8.806673 10.773432 -3.202456 -0.910085 1.571458 -0.677655 0.068004 0.372272 0.123226 0.000000 0.000000 0.000000 4.166482 3.018176 -0.005161 -4.686180 12.562080 1.591886 -17.978697 19.573053 -10.491571 0.000000 0.000000 0.000000 2.044104 2.135710 -1.239776 4.103716 7.575326 -3.377728 -1.616379 -7.323208 1.535744 -9.866870 6.416891 -45.889295 170.867414 -48.955603 169.829375 0.000000 0.000000 0.000000 4.559974 2.359740 -0.335133 -4.074320 3.539124 -21.640980 -3.182760 5.145466 5.395879 -46.893791 17.120387 64.335635 -141.667822 65.047505 135.962319 0.000000 0.000000 0.000000 
0.792490 81.477577 -2.397314 0.000000 0.000000 0.000000 4.994965 -54.421359 8.052272 -39.122190 10.476443 20.288529 57.928057 -9.475413 3.354154 -16.394945 -2.972674 -14.695403 -2.496716 -2.625827 0.886009 0.000000 0.000000 0.000000 4.714099 -52.190333 8.562396 -34.801894 -12.118994 -26.473354 56.403849 14.028718 -9.187301 -21.082851 -19.334420 26.726793 6.050460 10.784115 -27.417325 0.000000 0.000000 0.000000 4.142476 -48.342713 6.938771 9.162124 9.394060 -2.203620 -1.007908 1.042302 -0.212419 0.089227 0.396512 0.195481 0.000000 0.000000 0.000000 4.614659 2.582120 0.320761 -5.782133 13.114630 2.163040 -18.668140 27.281271 -11.463790 0.000000 0.000000 0.000000 2.213790 1.673412 -0.513206 3.780647 7.436438 -0.569869 1.231391 -6.663973 1.159098 -13.042373 12.782506 -42.634406 166.414554 -50.986573 165.975837 0.000000 0.000000 0.000000 4.570548 1.869625 -0.257296 -4.280188 3.748574 -19.841114 -2.129286 5.720020 5.149525 -47.696143 18.326832 70.301088 -146.364930 63.697893 140.469848 0.000000 0.000000 0.000000 
1.167957 81.224281 -2.837334 0.000000 0.000000 0.000000 5.486705 -58.023502 8.095606 -34.692457 9.374278 19.968990 58.901864 -8.374247 3.072900 -20.076421 0.639074 -15.065685 -2.149163 -2.376320 0.040237 0.000000 0.000000 0.000000 5.006966 -56.147071 8.607448 -39.012675 -8.704753 -26.194460 57.208128 15.177602 -9.509220 -18.761790 -16.212701 27.597752 6.033670 10.363308 -27.812776 0.000000 0.000000 0.000000 5.709152 -52.074605 6.909612 9.348372 7.693079 -1.216330 -0.907781 0.210517 0.269343 0.112191 0.293670 0.252573 0.000000 0.000000 0.000000 5.184821 1.834749 0.843411 -6.988238 14.051550 2.741442 -17.678650 34.945235 -13.637992 0.000000 0.000000 0.000000 2.819546 0.814208 0.286443 3.324641 5.956397 2.636357 3.182837 -3.814946 0.547316 -19.905555 15.137963 -37.261243 157.089379 -59.263810 157.209344 0.000000 0.000000 0.000000 4.768851 0.966100 -0.229232 -3.872403 5.121164 -18.114975 -1.188213 4.973142 4.164816 -48.291968 20.801063 75.676727 -149.726667 63.649372 143.851543 0.000000 0.000000 0.000000 
1.401391 80.952095 -3.279293 0.000000 0.000000 0.000000 5.153753 -59.945954 7.338051 -31.728541 7.698888 19.917101 60.176972 -7.529700 2.929296 -22.599972 3.120253 -15.199732 -2.701870 -2.063111 -0.852540 0.000000 0.000000 0.000000 4.357855 -58.460853 7.625193 -41.642888 -6.929551 -25.831699 57.657431 15.834943 -9.439147 -17.553839 -13.973449 27.700406 6.599625 9.835916 -27.643136 0.000000 0.000000 0.000000 6.339437 -54.461903 6.044980 9.311313 5.605129 -0.406211 -0.589779 -0.819438 0.608288 0.190168 0.037713 0.270646 0.000000 0.000000 0.000000 5.670192 0.823242 1.329629 -7.950035 15.264510 3.317669 -14.042930 41.741304 -17.383883 0.000000 0.000000 0.000000 4.004887 -0.351736 0.871958 3.020082 3.204856 5.601491 3.544782 0.280313 -0.319781 -28.558028 12.413014 -31.570319 126.847773 -71.393495 127.217696 0.000000 0.000000 0.000000 5.244456 -0.246144 -0.257349 -3.033867 7.018715 -16.652703 -1.098381 3.513559 2.597156 -47.662846 23.833972 79.592973 -153.512176 63.757043 147.944138 0.000000 0.000000 0.000000 
1.490831 80.675835 -3.616013 0.000000 0.000000 0.000000 3.894041 -59.484568 5.805755 -30.795028 5.701728 19.941796 61.547641 -7.211199 3.031058 -23.322285 4.017111 -15.400808 -4.006245 -1.724361 -1.668959 0.000000 0.000000 0.000000 3.008952 -58.611568 5.874405 -41.959870 -7.006526 -25.595885 57.657452 15.644601 -8.938032 -17.653466 -13.224093 26.715592 7.506812 9.337391 -26.742694 0.000000 0.000000 0.000000 5.937716 -55.127334 4.641196 9.061331 3.420221 0.061687 -0.130829 -1.809208 0.640339 0.227123 -0.224854 0.187944 0.000000 0.000000 0.000000 5.980245 -0.252518 1.531710 -8.574777 16.430271 3.958937 -7.902705 46.507468 -22.410670 0.000000 0.000000 0.000000 5.481817 -1.612367 1.114509 2.875334 -0.262654 7.825598 2.350848 4.178517 -1.146273 -35.706733 5.675470 -27.887546 61.895017 -70.088054 61.790529 0.000000 0.000000 0.000000 5.942086 -1.508936 -0.418584 -1.935192 9.080021 -15.532118 -1.965415 1.924446 1.136844 -45.242941 26.863855 80.854345 -157.804759 63.075028 152.949669 0.000000 0.000000 0.000000 
